<svg xmlns="http://www.w3.org/2000/svg">
  <symbol id="share_logo" fill="currentColor">
      <path d="M2.667 4.728h1.777c.369 0 .667.303.667.676 0 .34-.247.62-.568.67l-.099.006h-1.11v8.567h9.333V6.08h-1.08a.672.672 0 0 1-.667-.676c0-.34.247-.62.569-.669l.098-.007h1.746a.67.67 0 0 1 .66.576l.007.1v9.92c0 .34-.247.62-.568.669l-.099.007H2.667a.67.67 0 0 1-.66-.576l-.007-.1v-9.92c0-.34.247-.62.568-.669l.099-.007h1.777ZM7.547.223a.672.672 0 0 1 .95-.007L11.01 2.73c.26.26.257.686-.007.95a.672.672 0 0 1-.95.007L8.666 2.299v7.055A.672.672 0 0 1 8 10.03a.67.67 0 0 1-.66-.576l-.007-.1V2.322L5.939 3.717a.674.674 0 0 1-.867.077l-.083-.07a.672.672 0 0 1 .007-.95Z" id="a" />
    <use fill="evenodd" fill-rule="evenodd" xlink:href="#a" />
  </symbol>
</svg>